<?xml version="1.0" encoding="iso-8859-1"?>
<!-- Generator: Adobe Illustrator 19.0.0, SVG Export Plug-In . SVG Version: 6.00 Build 0)  -->
<svg xmlns="http://www.w3.org/2000/svg" xmlns:xlink="http://www.w3.org/1999/xlink" version="1.1" id="Layer_1" x="0px" y="0px" viewBox="0 0 512 512" style="enable-background:new 0 0 512 512;" xml:space="preserve" width="512px" height="512px">
<g>
	<g>
		<g>
			<path d="M490.667,256H480V53.333C480,23.936,456.085,0,426.667,0H85.333C55.915,0,32,23.936,32,53.333V256H21.333     c-5.888,0-10.667,4.779-10.667,10.667s4.779,10.667,10.667,10.667H32V480c0,5.888,4.779,10.667,10.667,10.667h10.667v10.667     C53.333,507.221,58.112,512,64,512s10.667-4.779,10.667-10.667v-10.667h384v10.667c0,5.888,4.779,10.667,10.667,10.667     c5.888,0,10.667-4.779,10.667-10.667v-224h10.667c5.888,0,10.667-4.779,10.667-10.667S496.555,256,490.667,256z M224,352     c0,5.888-4.779,10.667-10.667,10.667s-10.667-4.779-10.667-10.667v-21.333c0-5.888,4.779-10.667,10.667-10.667     S224,324.779,224,330.667V352z M266.667,458.667c0,5.888-4.779,10.667-10.667,10.667c-5.888,0-10.667-4.779-10.667-10.667V288     c0-5.888,4.779-10.667,10.667-10.667c5.888,0,10.667,4.779,10.667,10.667V458.667z M309.333,352     c0,5.888-4.779,10.667-10.667,10.667S288,357.888,288,352v-21.333c0-5.888,4.779-10.667,10.667-10.667     s10.667,4.779,10.667,10.667V352z M458.667,256h-192v-21.333h10.667c5.888,0,10.667-4.779,10.667-10.667     s-4.779-10.667-10.667-10.667h-10.667v-32c0-17.643-14.357-32-32-32c-17.643,0-32,14.357-32,32     c0,5.888,4.779,10.667,10.667,10.667S224,187.221,224,181.333s4.8-10.667,10.667-10.667c5.867,0,10.667,4.779,10.667,10.667v32     h-10.667c-5.888,0-10.667,4.779-10.667,10.667s4.779,10.667,10.667,10.667h10.667V256h-192V53.333c0-17.643,14.357-32,32-32     h341.333c17.643,0,32,14.357,32,32V256z" fill="#D80027"/>
			<path d="M163.115,67.115l-85.333,85.333c-4.16,4.16-4.16,10.923,0,15.083c2.091,2.091,4.821,3.115,7.552,3.115     c2.731,0,5.461-1.045,7.552-3.115l85.333-85.333c4.16-4.16,4.16-10.923,0-15.083C174.059,62.955,167.296,62.955,163.115,67.115z" fill="#D80027"/>
			<path d="M419.115,173.781l-42.667,42.667c-4.16,4.16-4.16,10.923,0,15.083c2.091,2.091,4.821,3.115,7.552,3.115     c2.731,0,5.461-1.045,7.552-3.115l42.667-42.667c4.16-4.16,4.16-10.923,0-15.083     C430.059,169.621,423.296,169.621,419.115,173.781z" fill="#D80027"/>
			<path d="M419.136,109.803l-85.333,85.333c-4.16,4.16-4.16,10.923,0,15.083c2.069,2.069,4.8,3.115,7.531,3.115     c2.731,0,5.461-1.045,7.552-3.115l85.333-85.333c4.16-4.16,4.16-10.923,0-15.083S423.296,105.643,419.136,109.803z" fill="#D80027"/>
			<path d="M85.333,106.667c2.731,0,5.461-1.045,7.552-3.115l42.667-42.667c4.16-4.16,4.16-10.923,0-15.083     c-4.16-4.16-10.923-4.16-15.083,0L77.803,88.469c-4.16,4.16-4.16,10.923,0,15.083C79.872,105.621,82.603,106.667,85.333,106.667z     " fill="#D80027"/>
		</g>
	</g>
</g>
<g>
</g>
<g>
</g>
<g>
</g>
<g>
</g>
<g>
</g>
<g>
</g>
<g>
</g>
<g>
</g>
<g>
</g>
<g>
</g>
<g>
</g>
<g>
</g>
<g>
</g>
<g>
</g>
<g>
</g>
</svg>
